<mxfile host="app.diagrams.net" modified="2020-10-27T08:20:27.239Z" agent="5.0 (Windows NT 10.0; Win64; x64) AppleWebKit/537.36 (KHTML, like Gecko) Chrome/86.0.4240.111 Safari/537.36" etag="hYvawzX3YZD1XiDz0AP_" version="13.8.3" type="github">
  <diagram id="_ValzFpsYl9TqzMumvmc" name="Page-1">
    <mxGraphModel dx="1422" dy="839" grid="1" gridSize="10" guides="1" tooltips="1" connect="1" arrows="1" fold="1" page="1" pageScale="1" pageWidth="1654" pageHeight="2336" math="0" shadow="0">
      <root>
        <mxCell id="0" />
        <mxCell id="1" parent="0" />
        <mxCell id="D4nSaXJI1rCoRDz8rY5--6" style="edgeStyle=orthogonalEdgeStyle;rounded=0;orthogonalLoop=1;jettySize=auto;html=1;exitX=1;exitY=0.5;exitDx=0;exitDy=0;entryX=0.5;entryY=0;entryDx=0;entryDy=0;" edge="1" parent="1" source="D4nSaXJI1rCoRDz8rY5--1" target="D4nSaXJI1rCoRDz8rY5--5">
          <mxGeometry relative="1" as="geometry" />
        </mxCell>
        <mxCell id="D4nSaXJI1rCoRDz8rY5--8" style="edgeStyle=orthogonalEdgeStyle;rounded=0;orthogonalLoop=1;jettySize=auto;html=1;exitX=0;exitY=0.5;exitDx=0;exitDy=0;entryX=0.5;entryY=0;entryDx=0;entryDy=0;" edge="1" parent="1" source="D4nSaXJI1rCoRDz8rY5--1" target="D4nSaXJI1rCoRDz8rY5--3">
          <mxGeometry relative="1" as="geometry" />
        </mxCell>
        <mxCell id="D4nSaXJI1rCoRDz8rY5--1" value="是否&lt;br&gt;内推/猎头渠道" style="rhombus;whiteSpace=wrap;html=1;" vertex="1" parent="1">
          <mxGeometry x="400" y="90" width="140" height="70" as="geometry" />
        </mxCell>
        <mxCell id="D4nSaXJI1rCoRDz8rY5--3" value="推荐成功" style="ellipse;whiteSpace=wrap;html=1;" vertex="1" parent="1">
          <mxGeometry x="270" y="235" width="80" height="50" as="geometry" />
        </mxCell>
        <mxCell id="D4nSaXJI1rCoRDz8rY5--10" style="edgeStyle=orthogonalEdgeStyle;rounded=0;orthogonalLoop=1;jettySize=auto;html=1;exitX=0;exitY=0.5;exitDx=0;exitDy=0;" edge="1" parent="1" source="D4nSaXJI1rCoRDz8rY5--5" target="D4nSaXJI1rCoRDz8rY5--9">
          <mxGeometry relative="1" as="geometry" />
        </mxCell>
        <mxCell id="D4nSaXJI1rCoRDz8rY5--11" value="不重复" style="edgeLabel;html=1;align=center;verticalAlign=middle;resizable=0;points=[];" vertex="1" connectable="0" parent="D4nSaXJI1rCoRDz8rY5--10">
          <mxGeometry x="-0.2157" y="12" relative="1" as="geometry">
            <mxPoint x="-13" y="12" as="offset" />
          </mxGeometry>
        </mxCell>
        <mxCell id="D4nSaXJI1rCoRDz8rY5--13" style="edgeStyle=orthogonalEdgeStyle;rounded=0;orthogonalLoop=1;jettySize=auto;html=1;exitX=1;exitY=0.5;exitDx=0;exitDy=0;entryX=0.5;entryY=0;entryDx=0;entryDy=0;" edge="1" parent="1" source="D4nSaXJI1rCoRDz8rY5--5" target="D4nSaXJI1rCoRDz8rY5--12">
          <mxGeometry relative="1" as="geometry" />
        </mxCell>
        <mxCell id="D4nSaXJI1rCoRDz8rY5--14" value="重复" style="edgeLabel;html=1;align=center;verticalAlign=middle;resizable=0;points=[];" vertex="1" connectable="0" parent="D4nSaXJI1rCoRDz8rY5--13">
          <mxGeometry x="-0.2" y="3" relative="1" as="geometry">
            <mxPoint y="1" as="offset" />
          </mxGeometry>
        </mxCell>
        <mxCell id="D4nSaXJI1rCoRDz8rY5--5" value="猎头、内推 渠道重复性检查" style="shape=process;whiteSpace=wrap;html=1;backgroundOutline=1;" vertex="1" parent="1">
          <mxGeometry x="480" y="235" width="250" height="55" as="geometry" />
        </mxCell>
        <mxCell id="D4nSaXJI1rCoRDz8rY5--9" value="推荐成功" style="ellipse;whiteSpace=wrap;html=1;" vertex="1" parent="1">
          <mxGeometry x="390" y="340" width="80" height="50" as="geometry" />
        </mxCell>
        <mxCell id="D4nSaXJI1rCoRDz8rY5--17" value="" style="edgeStyle=orthogonalEdgeStyle;rounded=0;orthogonalLoop=1;jettySize=auto;html=1;" edge="1" parent="1" source="D4nSaXJI1rCoRDz8rY5--12" target="D4nSaXJI1rCoRDz8rY5--16">
          <mxGeometry relative="1" as="geometry" />
        </mxCell>
        <mxCell id="D4nSaXJI1rCoRDz8rY5--12" value="是否开启&lt;br&gt;人才有效期" style="rhombus;whiteSpace=wrap;html=1;" vertex="1" parent="1">
          <mxGeometry x="730" y="325" width="150" height="75" as="geometry" />
        </mxCell>
        <mxCell id="D4nSaXJI1rCoRDz8rY5--19" value="" style="edgeStyle=orthogonalEdgeStyle;rounded=0;orthogonalLoop=1;jettySize=auto;html=1;" edge="1" parent="1" source="D4nSaXJI1rCoRDz8rY5--16" target="D4nSaXJI1rCoRDz8rY5--18">
          <mxGeometry relative="1" as="geometry" />
        </mxCell>
        <mxCell id="D4nSaXJI1rCoRDz8rY5--16" value="是否勾选了&lt;br&gt;当前渠道" style="rhombus;whiteSpace=wrap;html=1;" vertex="1" parent="1">
          <mxGeometry x="890" y="440" width="150" height="75" as="geometry" />
        </mxCell>
        <mxCell id="D4nSaXJI1rCoRDz8rY5--21" value="在有效期内" style="edgeStyle=orthogonalEdgeStyle;rounded=0;orthogonalLoop=1;jettySize=auto;html=1;" edge="1" parent="1" source="D4nSaXJI1rCoRDz8rY5--18" target="D4nSaXJI1rCoRDz8rY5--20">
          <mxGeometry relative="1" as="geometry" />
        </mxCell>
        <mxCell id="D4nSaXJI1rCoRDz8rY5--23" value="不在有效期内" style="edgeStyle=orthogonalEdgeStyle;rounded=0;orthogonalLoop=1;jettySize=auto;html=1;exitX=0;exitY=0.5;exitDx=0;exitDy=0;entryX=0.5;entryY=0;entryDx=0;entryDy=0;" edge="1" parent="1" source="D4nSaXJI1rCoRDz8rY5--18" target="D4nSaXJI1rCoRDz8rY5--22">
          <mxGeometry relative="1" as="geometry" />
        </mxCell>
        <mxCell id="D4nSaXJI1rCoRDz8rY5--18" value="是否在有效期内" style="rhombus;whiteSpace=wrap;html=1;" vertex="1" parent="1">
          <mxGeometry x="890" y="595" width="150" height="75" as="geometry" />
        </mxCell>
        <mxCell id="D4nSaXJI1rCoRDz8rY5--20" value="推荐失败&lt;br&gt;报错" style="ellipse;whiteSpace=wrap;html=1;" vertex="1" parent="1">
          <mxGeometry x="1060" y="710" width="80" height="50" as="geometry" />
        </mxCell>
        <mxCell id="D4nSaXJI1rCoRDz8rY5--22" value="推荐成功" style="ellipse;whiteSpace=wrap;html=1;" vertex="1" parent="1">
          <mxGeometry x="780" y="710" width="80" height="50" as="geometry" />
        </mxCell>
        <mxCell id="D4nSaXJI1rCoRDz8rY5--24" value="ApplicantImportCenter" style="shape=table;startSize=30;container=1;collapsible=1;childLayout=tableLayout;fixedRows=1;rowLines=0;fontStyle=1;align=center;resizeLast=1;" vertex="1" parent="1">
          <mxGeometry x="50" y="420" width="180" height="160" as="geometry" />
        </mxCell>
        <mxCell id="D4nSaXJI1rCoRDz8rY5--25" value="" style="shape=partialRectangle;collapsible=0;dropTarget=0;pointerEvents=0;fillColor=none;top=0;left=0;bottom=1;right=0;points=[[0,0.5],[1,0.5]];portConstraint=eastwest;" vertex="1" parent="D4nSaXJI1rCoRDz8rY5--24">
          <mxGeometry y="30" width="180" height="30" as="geometry" />
        </mxCell>
        <mxCell id="D4nSaXJI1rCoRDz8rY5--26" value="PK" style="shape=partialRectangle;connectable=0;fillColor=none;top=0;left=0;bottom=0;right=0;fontStyle=1;overflow=hidden;" vertex="1" parent="D4nSaXJI1rCoRDz8rY5--25">
          <mxGeometry width="30" height="30" as="geometry" />
        </mxCell>
        <mxCell id="D4nSaXJI1rCoRDz8rY5--27" value="UniqueID" style="shape=partialRectangle;connectable=0;fillColor=none;top=0;left=0;bottom=0;right=0;align=left;spacingLeft=6;fontStyle=5;overflow=hidden;" vertex="1" parent="D4nSaXJI1rCoRDz8rY5--25">
          <mxGeometry x="30" width="150" height="30" as="geometry" />
        </mxCell>
        <mxCell id="D4nSaXJI1rCoRDz8rY5--34" value="" style="shape=partialRectangle;collapsible=0;dropTarget=0;pointerEvents=0;fillColor=none;top=0;left=0;bottom=0;right=0;points=[[0,0.5],[1,0.5]];portConstraint=eastwest;" vertex="1" parent="D4nSaXJI1rCoRDz8rY5--24">
          <mxGeometry y="60" width="180" height="30" as="geometry" />
        </mxCell>
        <mxCell id="D4nSaXJI1rCoRDz8rY5--35" value="" style="shape=partialRectangle;connectable=0;fillColor=none;top=0;left=0;bottom=0;right=0;editable=1;overflow=hidden;" vertex="1" parent="D4nSaXJI1rCoRDz8rY5--34">
          <mxGeometry width="30" height="30" as="geometry" />
        </mxCell>
        <mxCell id="D4nSaXJI1rCoRDz8rY5--36" value="UploadBacthId" style="shape=partialRectangle;connectable=0;fillColor=none;top=0;left=0;bottom=0;right=0;align=left;spacingLeft=6;overflow=hidden;" vertex="1" parent="D4nSaXJI1rCoRDz8rY5--34">
          <mxGeometry x="30" width="150" height="30" as="geometry" />
        </mxCell>
        <mxCell id="D4nSaXJI1rCoRDz8rY5--28" value="" style="shape=partialRectangle;collapsible=0;dropTarget=0;pointerEvents=0;fillColor=none;top=0;left=0;bottom=0;right=0;points=[[0,0.5],[1,0.5]];portConstraint=eastwest;" vertex="1" parent="D4nSaXJI1rCoRDz8rY5--24">
          <mxGeometry y="90" width="180" height="30" as="geometry" />
        </mxCell>
        <mxCell id="D4nSaXJI1rCoRDz8rY5--29" value="" style="shape=partialRectangle;connectable=0;fillColor=none;top=0;left=0;bottom=0;right=0;editable=1;overflow=hidden;" vertex="1" parent="D4nSaXJI1rCoRDz8rY5--28">
          <mxGeometry width="30" height="30" as="geometry" />
        </mxCell>
        <mxCell id="D4nSaXJI1rCoRDz8rY5--30" value="JobId" style="shape=partialRectangle;connectable=0;fillColor=none;top=0;left=0;bottom=0;right=0;align=left;spacingLeft=6;overflow=hidden;" vertex="1" parent="D4nSaXJI1rCoRDz8rY5--28">
          <mxGeometry x="30" width="150" height="30" as="geometry" />
        </mxCell>
        <mxCell id="D4nSaXJI1rCoRDz8rY5--31" value="" style="shape=partialRectangle;collapsible=0;dropTarget=0;pointerEvents=0;fillColor=none;top=0;left=0;bottom=0;right=0;points=[[0,0.5],[1,0.5]];portConstraint=eastwest;" vertex="1" parent="D4nSaXJI1rCoRDz8rY5--24">
          <mxGeometry y="120" width="180" height="30" as="geometry" />
        </mxCell>
        <mxCell id="D4nSaXJI1rCoRDz8rY5--32" value="" style="shape=partialRectangle;connectable=0;fillColor=none;top=0;left=0;bottom=0;right=0;editable=1;overflow=hidden;" vertex="1" parent="D4nSaXJI1rCoRDz8rY5--31">
          <mxGeometry width="30" height="30" as="geometry" />
        </mxCell>
        <mxCell id="D4nSaXJI1rCoRDz8rY5--33" value="recommenderId" style="shape=partialRectangle;connectable=0;fillColor=none;top=0;left=0;bottom=0;right=0;align=left;spacingLeft=6;overflow=hidden;" vertex="1" parent="D4nSaXJI1rCoRDz8rY5--31">
          <mxGeometry x="30" width="150" height="30" as="geometry" />
        </mxCell>
      </root>
    </mxGraphModel>
  </diagram>
</mxfile>
